# xmcd
#
# Track frame offsets:
#	150
#	14765
#	29523
#	43655
#	57998
#	73077
#	86670
#	100932
#	115347
#	130458
#	145463
#	160555
#	175761
#	189265
#	203014
#	218356
#	232633
#	247859
#	263761
#	277950
#
# Disc length: 3898 seconds
#
# Revision: 0
# Processed by: cddbd v1.5.2PL0 Copyright (c) Steve Scherf et al.
# Submitted via: EasyCDDAExtractor 16.0.6.1
#
DISCID=120f3814
DTITLE=Συλλογικός δίσκος - Τα ρεμπέτικα Γ 1937-1960 14 Α
DYEAR=2010
DGENRE=Ρεμπέτικη
TTITLE0=Παγιουμτζής Στράτος-Τσιτσάνης Βασίλης - Ο Σαρκαφλιάς [ζεϊμπ., Β. Τσιτσ
TTITLE0=άνης, Αθήνα 3.1940]
TTITLE1=Αμπατζή Ρίτα - Εσύ 'σαι τρελλοκόριτσο [ζεϊμπ.Δ.Σέμσης-Δ.Γκόγκος, Αθ 5.
TTITLE1=1938]
TTITLE2=Παγιουμτζής Στράτος - Δυό μαύρα μάτια γνώρισα [χασ., Δ.Σέμσης-Σ.Παγιου
TTITLE2=μτζής, Αθ8.1939]
TTITLE3=Παγιουμτζής Στράτος-Τσιτσάνης Βασίλης - Ο Τσιτσάνης στην ζούγκλα [χασά
TTITLE3=π., Β. Τσιτσάνης, Αθήνα 12.1939]
TTITLE4=Σταυροπούλου Νταίζη - Τα παντρεμενάδικα [ζεϊμπ., Β. Τσιτσάνης, Αθ 10.6
TTITLE4=1940]
TTITLE5=Παπαϊωάννου Γιάννης-Ρούκουνας Κώστας - Απόψε πια δεν βάσταξα [απτάλ. Γ
TTITLE5=ρ. Ασίκης, Αθ 1938 ή 39]
TTITLE6=Βαμβακάρης Μάρκος-Τσιτσάνης Βασίλης - Φάνταζες σαν πριγκηπέσα [ζεϊμπ.,
TTITLE6=Β. Τσιτσάνης, Αθήνα 1941]
TTITLE7=Αμπατζή Ρίτα - Το μάγκικο [χασάπ., Κ.Καρίπης-Γ. Πετροπουλέας, Αθ 3.193
TTITLE7=8]
TTITLE8=Παγιουμτζής Στράτος-Περπινιάδης Στελλάκης - Σε φίνο ακρογιάλι [χασάπ.,
TTITLE8=Β. Τσιτσάνης, Αθήνα 5.1939]
TTITLE9=Βαμβακάρης Μάρκος-Χατζηχρήστος Απόστολος - Ο Αντώνης ο βαρκάρης [χασάπ
TTITLE9=Σ.Περιστέρης-Π.Οικονόμου, Αθ1939]
TTITLE10=Παγιουμτζής Στράτος-Περπινιάδης Στελλάκης - Τηλεγράφημα στην Κάρμεν[χ
TTITLE10=ασάπ.Π.Τούντας-Β.Μαυροφρύδης,Αθ1939]
TTITLE11=Βαμβακάρης Μάρκος-Παγιουμτζής Στράτος - Η Κάρμεν στην Αθήνα [χασάπ., 
TTITLE11=Σ.Περιστέρης-Π.Οικονόμου,Αθ 1939]
TTITLE12=Παγιουμτζής Στράτος-Τσιτσάνης Βασίλης - Καλαμπακιώτισσα [ζεϊμπ., Β.Τσ
TTITLE12=ιτσάνης-Σ.Παγιουμτζής,Αθ 3.1939]
TTITLE13=Ρούκουνας Κώστας ή Σαμιωτάκης - Πιπίνα μου [κουλουρ., Γρ. Ασίκης, Αθή
TTITLE13=να 1937]
TTITLE14=Κάβουρας Γιώργος - Κρυφό τον έχω τον καϋμό [χασάπ. Κ. Σκαρβέλης, Αθ 1
TTITLE14=940]
TTITLE15=Παγιουμτζής Στράτος-Τσιτσάνης Βασίλης - Μηχανικά με μπέρδεψες [χασάπ.
TTITLE15=Β.Τσιτσάνης-Σ.Παγιουμτζής,Αθ 3.1939]
TTITLE16=Παπαϊωάννου Γιάννης - Βαδίζω με παράπονο [απτάλ. Γ.Παπαϊωάννου-Αθ. Πα
TTITLE16=γκαλάκη,Αθ 1939]
TTITLE17=Κάβουρας Γιώργος - Θα χαθώ μικρή μου [χασάπ. Κ. Σκαρβέλης, Αθήνα 1939
TTITLE17=]
TTITLE18=Ζουμίδης Φ.-Παπαϊωάννου Γιάννης - Στη γειτονιά σου [χασάπ. Στ. Χρυσίν
TTITLE18=ης, Αθήνα 1938]
TTITLE19=Περπινιάδης Στελλάκης - Μάς πήρανε χαμπάρι [απτάλ.Δ.Σέμσης-Σ.Περπινιά
TTITLE19=δης, Αθ5.1939]
EXTD=
EXTT0=
EXTT1=
EXTT2=
EXTT3=
EXTT4=
EXTT5=
EXTT6=
EXTT7=
EXTT8=
EXTT9=
EXTT10=
EXTT11=
EXTT12=
EXTT13=
EXTT14=
EXTT15=
EXTT16=
EXTT17=
EXTT18=
EXTT19=
PLAYORDER=
